<?xml version="1.0" encoding="UTF-8" standalone="no"?>
<!DOCTYPE svg PUBLIC "-//W3C//DTD SVG 1.1//EN"
 "http://www.w3.org/Graphics/SVG/1.1/DTD/svg11.dtd">
<!-- Generated by graphviz version 2.47.0 (20210316.0004)
 -->
<!-- Title: dbml Pages: 1 -->
<svg width="1518pt" height="2291pt"
 viewBox="0.00 0.00 1517.61 2291.20" xmlns="http://www.w3.org/2000/svg" xmlns:xlink="http://www.w3.org/1999/xlink">
<g id="graph0" class="graph" transform="scale(1 1) rotate(0) translate(4 2287.2)">
<title>dbml</title>
<!-- notification_type_enum -->
<g id="notification_type_enum" class="node">
<title>notification_type_enum</title>
<ellipse fill="none" stroke="black" stroke-width="0" cx="1153.23" cy="-493.53" rx="338.91" ry="130.22"/>
<polygon fill="#29235c" stroke="transparent" points="916.23,-523.53 916.23,-583.53 1391.23,-583.53 1391.23,-523.53 916.23,-523.53"/>
<polygon fill="none" stroke="#29235c" points="916.23,-523.53 916.23,-583.53 1391.23,-583.53 1391.23,-523.53 916.23,-523.53"/>
<text text-anchor="start" x="926.98" y="-544.73" font-family="Helvetica,sans-Serif" font-weight="bold" font-size="32.00" fill="#ffffff"> &#160;&#160;&#160;&#160;&#160;&#160;notification_type_enum &#160;&#160;&#160;&#160;&#160;&#160;</text>
<polygon fill="#e7e2dd" stroke="transparent" points="916.23,-463.53 916.23,-523.53 1391.23,-523.53 1391.23,-463.53 916.23,-463.53"/>
<polygon fill="none" stroke="#29235c" points="916.23,-463.53 916.23,-523.53 1391.23,-523.53 1391.23,-463.53 916.23,-463.53"/>
<text text-anchor="start" x="1079.94" y="-484.73" font-family="Helvetica,sans-Serif" font-style="italic" font-size="32.00" fill="#1d71b8"> &#160;&#160;&#160;email &#160;&#160;&#160;</text>
<polygon fill="#e7e2dd" stroke="transparent" points="916.23,-403.53 916.23,-463.53 1391.23,-463.53 1391.23,-403.53 916.23,-403.53"/>
<polygon fill="none" stroke="#29235c" points="916.23,-403.53 916.23,-463.53 1391.23,-463.53 1391.23,-403.53 916.23,-403.53"/>
<text text-anchor="start" x="1083.47" y="-424.73" font-family="Helvetica,sans-Serif" font-style="italic" font-size="32.00" fill="#1d71b8"> &#160;&#160;&#160;push &#160;&#160;&#160;</text>
<polygon fill="none" stroke="#29235c" stroke-width="2" points="914.73,-402.53 914.73,-584.53 1391.73,-584.53 1391.73,-402.53 914.73,-402.53"/>
</g>
<!-- notification_status_enum -->
<g id="notification_status_enum" class="node">
<title>notification_status_enum</title>
<ellipse fill="none" stroke="black" stroke-width="0" cx="1153.23" cy="-172.53" rx="356.26" ry="172.57"/>
<polygon fill="#29235c" stroke="transparent" points="903.23,-232.53 903.23,-292.53 1403.23,-292.53 1403.23,-232.53 903.23,-232.53"/>
<polygon fill="none" stroke="#29235c" points="903.23,-232.53 903.23,-292.53 1403.23,-292.53 1403.23,-232.53 903.23,-232.53"/>
<text text-anchor="start" x="914.04" y="-253.73" font-family="Helvetica,sans-Serif" font-weight="bold" font-size="32.00" fill="#ffffff"> &#160;&#160;&#160;&#160;&#160;&#160;notification_status_enum &#160;&#160;&#160;&#160;&#160;&#160;</text>
<polygon fill="#e7e2dd" stroke="transparent" points="903.23,-172.53 903.23,-232.53 1403.23,-232.53 1403.23,-172.53 903.23,-172.53"/>
<polygon fill="none" stroke="#29235c" points="903.23,-172.53 903.23,-232.53 1403.23,-232.53 1403.23,-172.53 903.23,-172.53"/>
<text text-anchor="start" x="1060.74" y="-193.73" font-family="Helvetica,sans-Serif" font-style="italic" font-size="32.00" fill="#1d71b8"> &#160;&#160;&#160;pending &#160;&#160;&#160;</text>
<polygon fill="#e7e2dd" stroke="transparent" points="903.23,-112.53 903.23,-172.53 1403.23,-172.53 1403.23,-112.53 903.23,-112.53"/>
<polygon fill="none" stroke="#29235c" points="903.23,-112.53 903.23,-172.53 1403.23,-172.53 1403.23,-112.53 903.23,-112.53"/>
<text text-anchor="start" x="1087.42" y="-133.73" font-family="Helvetica,sans-Serif" font-style="italic" font-size="32.00" fill="#1d71b8"> &#160;&#160;&#160;sent &#160;&#160;&#160;</text>
<polygon fill="#e7e2dd" stroke="transparent" points="903.23,-52.53 903.23,-112.53 1403.23,-112.53 1403.23,-52.53 903.23,-52.53"/>
<polygon fill="none" stroke="#29235c" points="903.23,-52.53 903.23,-112.53 1403.23,-112.53 1403.23,-52.53 903.23,-52.53"/>
<text text-anchor="start" x="1079.43" y="-73.73" font-family="Helvetica,sans-Serif" font-style="italic" font-size="32.00" fill="#1d71b8"> &#160;&#160;&#160;failed &#160;&#160;&#160;</text>
<polygon fill="none" stroke="#29235c" stroke-width="2" points="902.23,-51.53 902.23,-293.53 1404.23,-293.53 1404.23,-51.53 902.23,-51.53"/>
</g>
<!-- users -->
<g id="users" class="node">
<title>users</title>
<ellipse fill="none" stroke="black" stroke-width="0" cx="1153.23" cy="-1898.53" rx="333.09" ry="384.83"/>
<polygon fill="#1d71b8" stroke="transparent" points="920.23,-2108.53 920.23,-2168.53 1387.23,-2168.53 1387.23,-2108.53 920.23,-2108.53"/>
<polygon fill="none" stroke="#29235c" points="920.23,-2108.53 920.23,-2168.53 1387.23,-2168.53 1387.23,-2108.53 920.23,-2108.53"/>
<text text-anchor="start" x="1052.36" y="-2129.73" font-family="Helvetica,sans-Serif" font-weight="bold" font-size="32.00" fill="#ffffff"> &#160;&#160;&#160;&#160;&#160;&#160;users &#160;&#160;&#160;&#160;&#160;&#160;</text>
<polygon fill="#e7e2dd" stroke="transparent" points="920.23,-2048.53 920.23,-2108.53 1387.23,-2108.53 1387.23,-2048.53 920.23,-2048.53"/>
<polygon fill="none" stroke="#29235c" points="920.23,-2048.53 920.23,-2108.53 1387.23,-2108.53 1387.23,-2048.53 920.23,-2048.53"/>
<text text-anchor="start" x="931.23" y="-2069.73" font-family="Helvetica,sans-Serif" font-weight="bold" font-size="32.00" fill="#29235c">id</text>
<text text-anchor="start" x="956.12" y="-2069.73" font-family="Helvetica,sans-Serif" font-size="32.00" fill="#29235c"> &#160;&#160;&#160;</text>
<text text-anchor="start" x="1299.77" y="-2069.73" font-family="Helvetica,sans-Serif" font-style="italic" font-size="32.00" fill="#29235c">bigint</text>
<polygon fill="#e7e2dd" stroke="transparent" points="920.23,-1988.53 920.23,-2048.53 1387.23,-2048.53 1387.23,-1988.53 920.23,-1988.53"/>
<polygon fill="none" stroke="#29235c" points="920.23,-1988.53 920.23,-2048.53 1387.23,-2048.53 1387.23,-1988.53 920.23,-1988.53"/>
<text text-anchor="start" x="931.23" y="-2008.73" font-family="Helvetica,sans-Serif" font-size="32.00" fill="#29235c">sso_provider &#160;&#160;&#160;</text>
<text text-anchor="start" x="1173.58" y="-2009.73" font-family="Helvetica,sans-Serif" font-style="italic" font-size="32.00" fill="#29235c">varchar(50)</text>
<text text-anchor="start" x="1337.14" y="-2009.73" font-family="Helvetica,sans-Serif" font-size="32.00" fill="#29235c"> </text>
<text text-anchor="start" x="1346.03" y="-2009.73" font-family="Helvetica,sans-Serif" font-weight="bold" font-size="32.00" fill="#29235c">(!)</text>
<polygon fill="#e7e2dd" stroke="transparent" points="920.23,-1928.53 920.23,-1988.53 1387.23,-1988.53 1387.23,-1928.53 920.23,-1928.53"/>
<polygon fill="none" stroke="#29235c" points="920.23,-1928.53 920.23,-1988.53 1387.23,-1988.53 1387.23,-1928.53 920.23,-1928.53"/>
<text text-anchor="start" x="930.81" y="-1948.73" font-family="Helvetica,sans-Serif" font-size="32.00" fill="#29235c">sso_user_uid &#160;&#160;&#160;</text>
<text text-anchor="start" x="1156.01" y="-1949.73" font-family="Helvetica,sans-Serif" font-style="italic" font-size="32.00" fill="#29235c">varchar(255)</text>
<text text-anchor="start" x="1337.36" y="-1949.73" font-family="Helvetica,sans-Serif" font-size="32.00" fill="#29235c"> </text>
<text text-anchor="start" x="1346.25" y="-1949.73" font-family="Helvetica,sans-Serif" font-weight="bold" font-size="32.00" fill="#29235c">(!)</text>
<polygon fill="#e7e2dd" stroke="transparent" points="920.23,-1868.53 920.23,-1928.53 1387.23,-1928.53 1387.23,-1868.53 920.23,-1868.53"/>
<polygon fill="none" stroke="#29235c" points="920.23,-1868.53 920.23,-1928.53 1387.23,-1928.53 1387.23,-1868.53 920.23,-1868.53"/>
<text text-anchor="start" x="931.23" y="-1888.73" font-family="Helvetica,sans-Serif" font-size="32.00" fill="#29235c">email &#160;&#160;&#160;</text>
<text text-anchor="start" x="1262.46" y="-1889.73" font-family="Helvetica,sans-Serif" font-style="italic" font-size="32.00" fill="#29235c">citext</text>
<text text-anchor="start" x="1337.14" y="-1889.73" font-family="Helvetica,sans-Serif" font-size="32.00" fill="#29235c"> </text>
<text text-anchor="start" x="1346.03" y="-1889.73" font-family="Helvetica,sans-Serif" font-weight="bold" font-size="32.00" fill="#29235c">(!)</text>
<polygon fill="#e7e2dd" stroke="transparent" points="920.23,-1808.53 920.23,-1868.53 1387.23,-1868.53 1387.23,-1808.53 920.23,-1808.53"/>
<polygon fill="none" stroke="#29235c" points="920.23,-1808.53 920.23,-1868.53 1387.23,-1868.53 1387.23,-1808.53 920.23,-1808.53"/>
<text text-anchor="start" x="931.23" y="-1828.73" font-family="Helvetica,sans-Serif" font-size="32.00" fill="#29235c">alias &#160;&#160;&#160;</text>
<text text-anchor="start" x="1194.88" y="-1829.73" font-family="Helvetica,sans-Serif" font-style="italic" font-size="32.00" fill="#29235c">varchar(120)</text>
<polygon fill="#e7e2dd" stroke="transparent" points="920.23,-1748.53 920.23,-1808.53 1387.23,-1808.53 1387.23,-1748.53 920.23,-1748.53"/>
<polygon fill="none" stroke="#29235c" points="920.23,-1748.53 920.23,-1808.53 1387.23,-1808.53 1387.23,-1748.53 920.23,-1748.53"/>
<text text-anchor="start" x="931.23" y="-1768.73" font-family="Helvetica,sans-Serif" font-size="32.00" fill="#29235c">avatar_url &#160;&#160;&#160;</text>
<text text-anchor="start" x="1324.65" y="-1769.73" font-family="Helvetica,sans-Serif" font-style="italic" font-size="32.00" fill="#29235c">text</text>
<polygon fill="#e7e2dd" stroke="transparent" points="920.23,-1688.53 920.23,-1748.53 1387.23,-1748.53 1387.23,-1688.53 920.23,-1688.53"/>
<polygon fill="none" stroke="#29235c" points="920.23,-1688.53 920.23,-1748.53 1387.23,-1748.53 1387.23,-1688.53 920.23,-1688.53"/>
<text text-anchor="start" x="931.23" y="-1708.73" font-family="Helvetica,sans-Serif" font-size="32.00" fill="#29235c">created_at &#160;&#160;&#160;</text>
<text text-anchor="start" x="1203.78" y="-1709.73" font-family="Helvetica,sans-Serif" font-style="italic" font-size="32.00" fill="#29235c">timestamptz</text>
<polygon fill="#e7e2dd" stroke="transparent" points="920.23,-1628.53 920.23,-1688.53 1387.23,-1688.53 1387.23,-1628.53 920.23,-1628.53"/>
<polygon fill="none" stroke="#29235c" points="920.23,-1628.53 920.23,-1688.53 1387.23,-1688.53 1387.23,-1628.53 920.23,-1628.53"/>
<text text-anchor="start" x="931.23" y="-1648.73" font-family="Helvetica,sans-Serif" font-size="32.00" fill="#29235c">updated_at &#160;&#160;&#160;</text>
<text text-anchor="start" x="1203.78" y="-1649.73" font-family="Helvetica,sans-Serif" font-style="italic" font-size="32.00" fill="#29235c">timestamptz</text>
<polygon fill="none" stroke="#29235c" stroke-width="2" points="918.73,-1627.53 918.73,-2169.53 1387.73,-2169.53 1387.73,-1627.53 918.73,-1627.53"/>
</g>
<!-- urls -->
<g id="urls" class="node">
<title>urls</title>
<ellipse fill="none" stroke="black" stroke-width="0" cx="1153.23" cy="-1068.53" rx="300.54" ry="427.19"/>
<polygon fill="#1d71b8" stroke="transparent" points="943.23,-1308.53 943.23,-1368.53 1364.23,-1368.53 1364.23,-1308.53 943.23,-1308.53"/>
<polygon fill="none" stroke="#29235c" points="943.23,-1308.53 943.23,-1368.53 1364.23,-1368.53 1364.23,-1308.53 943.23,-1308.53"/>
<text text-anchor="start" x="1065.71" y="-1329.73" font-family="Helvetica,sans-Serif" font-weight="bold" font-size="32.00" fill="#ffffff"> &#160;&#160;&#160;&#160;&#160;&#160;urls &#160;&#160;&#160;&#160;&#160;&#160;</text>
<polygon fill="#e7e2dd" stroke="transparent" points="943.23,-1248.53 943.23,-1308.53 1364.23,-1308.53 1364.23,-1248.53 943.23,-1248.53"/>
<polygon fill="none" stroke="#29235c" points="943.23,-1248.53 943.23,-1308.53 1364.23,-1308.53 1364.23,-1248.53 943.23,-1248.53"/>
<text text-anchor="start" x="954.23" y="-1269.73" font-family="Helvetica,sans-Serif" font-weight="bold" font-size="32.00" fill="#29235c">id</text>
<text text-anchor="start" x="979.12" y="-1269.73" font-family="Helvetica,sans-Serif" font-size="32.00" fill="#29235c"> &#160;&#160;&#160;</text>
<text text-anchor="start" x="1276.77" y="-1269.73" font-family="Helvetica,sans-Serif" font-style="italic" font-size="32.00" fill="#29235c">bigint</text>
<polygon fill="#e7e2dd" stroke="transparent" points="943.23,-1188.53 943.23,-1248.53 1364.23,-1248.53 1364.23,-1188.53 943.23,-1188.53"/>
<polygon fill="none" stroke="#29235c" points="943.23,-1188.53 943.23,-1248.53 1364.23,-1248.53 1364.23,-1188.53 943.23,-1188.53"/>
<text text-anchor="start" x="954.23" y="-1208.73" font-family="Helvetica,sans-Serif" font-size="32.00" fill="#29235c">url &#160;&#160;&#160;</text>
<text text-anchor="start" x="1262.56" y="-1209.73" font-family="Helvetica,sans-Serif" font-style="italic" font-size="32.00" fill="#29235c">text</text>
<text text-anchor="start" x="1314.14" y="-1209.73" font-family="Helvetica,sans-Serif" font-size="32.00" fill="#29235c"> </text>
<text text-anchor="start" x="1323.03" y="-1209.73" font-family="Helvetica,sans-Serif" font-weight="bold" font-size="32.00" fill="#29235c">(!)</text>
<polygon fill="#e7e2dd" stroke="transparent" points="943.23,-1128.53 943.23,-1188.53 1364.23,-1188.53 1364.23,-1128.53 943.23,-1128.53"/>
<polygon fill="none" stroke="#29235c" points="943.23,-1128.53 943.23,-1188.53 1364.23,-1188.53 1364.23,-1128.53 943.23,-1128.53"/>
<text text-anchor="start" x="954.23" y="-1148.73" font-family="Helvetica,sans-Serif" font-size="32.00" fill="#29235c">bodyHash &#160;&#160;&#160;</text>
<text text-anchor="start" x="1301.65" y="-1149.73" font-family="Helvetica,sans-Serif" font-style="italic" font-size="32.00" fill="#29235c">text</text>
<polygon fill="#e7e2dd" stroke="transparent" points="943.23,-1068.53 943.23,-1128.53 1364.23,-1128.53 1364.23,-1068.53 943.23,-1068.53"/>
<polygon fill="none" stroke="#29235c" points="943.23,-1068.53 943.23,-1128.53 1364.23,-1128.53 1364.23,-1068.53 943.23,-1068.53"/>
<text text-anchor="start" x="954.23" y="-1088.73" font-family="Helvetica,sans-Serif" font-size="32.00" fill="#29235c">selector &#160;&#160;&#160;</text>
<text text-anchor="start" x="1301.65" y="-1089.73" font-family="Helvetica,sans-Serif" font-style="italic" font-size="32.00" fill="#29235c">text</text>
<polygon fill="#e7e2dd" stroke="transparent" points="943.23,-1008.53 943.23,-1068.53 1364.23,-1068.53 1364.23,-1008.53 943.23,-1008.53"/>
<polygon fill="none" stroke="#29235c" points="943.23,-1008.53 943.23,-1068.53 1364.23,-1068.53 1364.23,-1008.53 943.23,-1008.53"/>
<text text-anchor="start" x="954.02" y="-1028.73" font-family="Helvetica,sans-Serif" font-size="32.00" fill="#29235c">type_check &#160;&#160;&#160;</text>
<text text-anchor="start" x="1150.91" y="-1029.73" font-family="Helvetica,sans-Serif" font-style="italic" font-size="32.00" fill="#29235c">varchar(20)</text>
<text text-anchor="start" x="1314.46" y="-1029.73" font-family="Helvetica,sans-Serif" font-size="32.00" fill="#29235c"> </text>
<text text-anchor="start" x="1323.35" y="-1029.73" font-family="Helvetica,sans-Serif" font-weight="bold" font-size="32.00" fill="#29235c">(!)</text>
<polygon fill="#e7e2dd" stroke="transparent" points="943.23,-948.53 943.23,-1008.53 1364.23,-1008.53 1364.23,-948.53 943.23,-948.53"/>
<polygon fill="none" stroke="#29235c" points="943.23,-948.53 943.23,-1008.53 1364.23,-1008.53 1364.23,-948.53 943.23,-948.53"/>
<text text-anchor="start" x="954.23" y="-968.73" font-family="Helvetica,sans-Serif" font-size="32.00" fill="#29235c">price_min &#160;&#160;&#160;</text>
<text text-anchor="start" x="1159.44" y="-969.73" font-family="Helvetica,sans-Serif" font-style="italic" font-size="32.00" fill="#29235c">decimal(12,2)</text>
<polygon fill="#e7e2dd" stroke="transparent" points="943.23,-888.53 943.23,-948.53 1364.23,-948.53 1364.23,-888.53 943.23,-888.53"/>
<polygon fill="none" stroke="#29235c" points="943.23,-888.53 943.23,-948.53 1364.23,-948.53 1364.23,-888.53 943.23,-888.53"/>
<text text-anchor="start" x="954.23" y="-908.73" font-family="Helvetica,sans-Serif" font-size="32.00" fill="#29235c">price_max &#160;&#160;&#160;</text>
<text text-anchor="start" x="1159.44" y="-909.73" font-family="Helvetica,sans-Serif" font-style="italic" font-size="32.00" fill="#29235c">decimal(12,2)</text>
<polygon fill="#e7e2dd" stroke="transparent" points="943.23,-828.53 943.23,-888.53 1364.23,-888.53 1364.23,-828.53 943.23,-828.53"/>
<polygon fill="none" stroke="#29235c" points="943.23,-828.53 943.23,-888.53 1364.23,-888.53 1364.23,-828.53 943.23,-828.53"/>
<text text-anchor="start" x="954.23" y="-848.73" font-family="Helvetica,sans-Serif" font-size="32.00" fill="#29235c">created_at &#160;&#160;&#160;</text>
<text text-anchor="start" x="1180.78" y="-849.73" font-family="Helvetica,sans-Serif" font-style="italic" font-size="32.00" fill="#29235c">timestamptz</text>
<polygon fill="#e7e2dd" stroke="transparent" points="943.23,-768.53 943.23,-828.53 1364.23,-828.53 1364.23,-768.53 943.23,-768.53"/>
<polygon fill="none" stroke="#29235c" points="943.23,-768.53 943.23,-828.53 1364.23,-828.53 1364.23,-768.53 943.23,-768.53"/>
<text text-anchor="start" x="954.23" y="-788.73" font-family="Helvetica,sans-Serif" font-size="32.00" fill="#29235c">updated_at &#160;&#160;&#160;</text>
<text text-anchor="start" x="1180.78" y="-789.73" font-family="Helvetica,sans-Serif" font-style="italic" font-size="32.00" fill="#29235c">timestamptz</text>
<polygon fill="none" stroke="#29235c" stroke-width="2" points="941.73,-767.53 941.73,-1369.53 1364.73,-1369.53 1364.73,-767.53 941.73,-767.53"/>
</g>
<!-- user_has_urls -->
<g id="user_has_urls" class="node">
<title>user_has_urls</title>
<ellipse fill="none" stroke="black" stroke-width="0" cx="380.42" cy="-1930.53" rx="277.79" ry="257.27"/>
<polygon fill="#1d71b8" stroke="transparent" points="186.42,-2050.53 186.42,-2110.53 575.42,-2110.53 575.42,-2050.53 186.42,-2050.53"/>
<polygon fill="none" stroke="#29235c" points="186.42,-2050.53 186.42,-2110.53 575.42,-2110.53 575.42,-2050.53 186.42,-2050.53"/>
<text text-anchor="start" x="218.21" y="-2071.73" font-family="Helvetica,sans-Serif" font-weight="bold" font-size="32.00" fill="#ffffff"> &#160;&#160;&#160;&#160;&#160;&#160;user_has_urls &#160;&#160;&#160;&#160;&#160;&#160;</text>
<polygon fill="#e7e2dd" stroke="transparent" points="186.42,-1990.53 186.42,-2050.53 575.42,-2050.53 575.42,-1990.53 186.42,-1990.53"/>
<polygon fill="none" stroke="#29235c" points="186.42,-1990.53 186.42,-2050.53 575.42,-2050.53 575.42,-1990.53 186.42,-1990.53"/>
<text text-anchor="start" x="197.42" y="-2011.73" font-family="Helvetica,sans-Serif" font-weight="bold" font-size="32.00" fill="#29235c">id</text>
<text text-anchor="start" x="222.31" y="-2011.73" font-family="Helvetica,sans-Serif" font-size="32.00" fill="#29235c"> &#160;&#160;&#160;</text>
<text text-anchor="start" x="487.96" y="-2011.73" font-family="Helvetica,sans-Serif" font-style="italic" font-size="32.00" fill="#29235c">bigint</text>
<polygon fill="#e7e2dd" stroke="transparent" points="186.42,-1930.53 186.42,-1990.53 575.42,-1990.53 575.42,-1930.53 186.42,-1930.53"/>
<polygon fill="none" stroke="#29235c" points="186.42,-1930.53 186.42,-1990.53 575.42,-1990.53 575.42,-1930.53 186.42,-1930.53"/>
<text text-anchor="start" x="197.42" y="-1950.73" font-family="Helvetica,sans-Serif" font-size="32.00" fill="#29235c">user_id &#160;&#160;&#160;</text>
<text text-anchor="start" x="448.87" y="-1951.73" font-family="Helvetica,sans-Serif" font-style="italic" font-size="32.00" fill="#29235c">bigint</text>
<text text-anchor="start" x="525.33" y="-1951.73" font-family="Helvetica,sans-Serif" font-size="32.00" fill="#29235c"> </text>
<text text-anchor="start" x="534.23" y="-1951.73" font-family="Helvetica,sans-Serif" font-weight="bold" font-size="32.00" fill="#29235c">(!)</text>
<polygon fill="#e7e2dd" stroke="transparent" points="186.42,-1870.53 186.42,-1930.53 575.42,-1930.53 575.42,-1870.53 186.42,-1870.53"/>
<polygon fill="none" stroke="#29235c" points="186.42,-1870.53 186.42,-1930.53 575.42,-1930.53 575.42,-1870.53 186.42,-1870.53"/>
<text text-anchor="start" x="197.42" y="-1890.73" font-family="Helvetica,sans-Serif" font-size="32.00" fill="#29235c">url_id &#160;&#160;&#160;</text>
<text text-anchor="start" x="448.87" y="-1891.73" font-family="Helvetica,sans-Serif" font-style="italic" font-size="32.00" fill="#29235c">bigint</text>
<text text-anchor="start" x="525.33" y="-1891.73" font-family="Helvetica,sans-Serif" font-size="32.00" fill="#29235c"> </text>
<text text-anchor="start" x="534.23" y="-1891.73" font-family="Helvetica,sans-Serif" font-weight="bold" font-size="32.00" fill="#29235c">(!)</text>
<polygon fill="#e7e2dd" stroke="transparent" points="186.42,-1810.53 186.42,-1870.53 575.42,-1870.53 575.42,-1810.53 186.42,-1810.53"/>
<polygon fill="none" stroke="#29235c" points="186.42,-1810.53 186.42,-1870.53 575.42,-1870.53 575.42,-1810.53 186.42,-1810.53"/>
<text text-anchor="start" x="197.42" y="-1830.73" font-family="Helvetica,sans-Serif" font-size="32.00" fill="#29235c">created_at &#160;&#160;&#160;</text>
<text text-anchor="start" x="391.97" y="-1831.73" font-family="Helvetica,sans-Serif" font-style="italic" font-size="32.00" fill="#29235c">timestamptz</text>
<polygon fill="#e7e2dd" stroke="transparent" points="186.42,-1750.53 186.42,-1810.53 575.42,-1810.53 575.42,-1750.53 186.42,-1750.53"/>
<polygon fill="none" stroke="#29235c" points="186.42,-1750.53 186.42,-1810.53 575.42,-1810.53 575.42,-1750.53 186.42,-1750.53"/>
<text text-anchor="start" x="197.09" y="-1770.73" font-family="Helvetica,sans-Serif" font-size="32.00" fill="#29235c">updated_at &#160;&#160;&#160;</text>
<text text-anchor="start" x="392.2" y="-1771.73" font-family="Helvetica,sans-Serif" font-style="italic" font-size="32.00" fill="#29235c">timestamptz</text>
<polygon fill="none" stroke="#29235c" stroke-width="2" points="184.92,-1749.53 184.92,-2111.53 575.92,-2111.53 575.92,-1749.53 184.92,-1749.53"/>
</g>
<!-- user_has_urls&#45;&gt;users -->
<!-- user_has_urls&#45;&gt;users -->
<g id="edge2" class="edge">
<title>user_has_urls:e&#45;&gt;users:w</title>
<path fill="none" stroke="#29235c" stroke-width="3" d="M576.42,-1960.53C734.09,-1960.53 757.15,-2073.52 909.04,-2078.37"/>
<polygon fill="#29235c" stroke="#29235c" stroke-width="3" points="909.17,-2081.88 919.23,-2078.53 909.29,-2074.88 909.17,-2081.88"/>
<text text-anchor="middle" x="910.33" y="-2088.13" font-family="Helvetica,sans-Serif" font-size="32.00" fill="#29235c">1</text>
<text text-anchor="middle" x="570.2" y="-1970.13" font-family="Helvetica,sans-Serif" font-size="32.00" fill="#29235c">*</text>
</g>
<!-- user_has_urls&#45;&gt;urls -->
<!-- user_has_urls&#45;&gt;urls -->
<g id="edge4" class="edge">
<title>user_has_urls:e&#45;&gt;urls:w</title>
<path fill="none" stroke="#29235c" stroke-width="3" d="M576.42,-1900.53C893.69,-1900.53 627.37,-1291.83 932.1,-1278.75"/>
<polygon fill="#29235c" stroke="#29235c" stroke-width="3" points="932.3,-1282.24 942.23,-1278.53 932.16,-1275.25 932.3,-1282.24"/>
<text text-anchor="middle" x="933.33" y="-1288.13" font-family="Helvetica,sans-Serif" font-size="32.00" fill="#29235c">1</text>
<text text-anchor="middle" x="570.2" y="-1910.13" font-family="Helvetica,sans-Serif" font-size="32.00" fill="#29235c">*</text>
</g>
<!-- notifications -->
<g id="notifications" class="node">
<title>notifications</title>
<ellipse fill="none" stroke="black" stroke-width="0" cx="380.42" cy="-1155.53" rx="380.35" ry="384.83"/>
<polygon fill="#1d71b8" stroke="transparent" points="113.42,-1365.53 113.42,-1425.53 647.42,-1425.53 647.42,-1365.53 113.42,-1365.53"/>
<polygon fill="none" stroke="#29235c" points="113.42,-1365.53 113.42,-1425.53 647.42,-1425.53 647.42,-1365.53 113.42,-1365.53"/>
<text text-anchor="start" x="233.71" y="-1386.73" font-family="Helvetica,sans-Serif" font-weight="bold" font-size="32.00" fill="#ffffff"> &#160;&#160;&#160;&#160;&#160;&#160;notifications &#160;&#160;&#160;&#160;&#160;&#160;</text>
<polygon fill="#e7e2dd" stroke="transparent" points="113.42,-1305.53 113.42,-1365.53 647.42,-1365.53 647.42,-1305.53 113.42,-1305.53"/>
<polygon fill="none" stroke="#29235c" points="113.42,-1305.53 113.42,-1365.53 647.42,-1365.53 647.42,-1305.53 113.42,-1305.53"/>
<text text-anchor="start" x="124.42" y="-1326.73" font-family="Helvetica,sans-Serif" font-weight="bold" font-size="32.00" fill="#29235c">id</text>
<text text-anchor="start" x="149.31" y="-1326.73" font-family="Helvetica,sans-Serif" font-size="32.00" fill="#29235c"> &#160;&#160;&#160;</text>
<text text-anchor="start" x="559.96" y="-1326.73" font-family="Helvetica,sans-Serif" font-style="italic" font-size="32.00" fill="#29235c">bigint</text>
<polygon fill="#e7e2dd" stroke="transparent" points="113.42,-1245.53 113.42,-1305.53 647.42,-1305.53 647.42,-1245.53 113.42,-1245.53"/>
<polygon fill="none" stroke="#29235c" points="113.42,-1245.53 113.42,-1305.53 647.42,-1305.53 647.42,-1245.53 113.42,-1245.53"/>
<text text-anchor="start" x="124.42" y="-1265.73" font-family="Helvetica,sans-Serif" font-size="32.00" fill="#29235c">user_id &#160;&#160;&#160;</text>
<text text-anchor="start" x="520.87" y="-1266.73" font-family="Helvetica,sans-Serif" font-style="italic" font-size="32.00" fill="#29235c">bigint</text>
<text text-anchor="start" x="597.33" y="-1266.73" font-family="Helvetica,sans-Serif" font-size="32.00" fill="#29235c"> </text>
<text text-anchor="start" x="606.23" y="-1266.73" font-family="Helvetica,sans-Serif" font-weight="bold" font-size="32.00" fill="#29235c">(!)</text>
<polygon fill="#e7e2dd" stroke="transparent" points="113.42,-1185.53 113.42,-1245.53 647.42,-1245.53 647.42,-1185.53 113.42,-1185.53"/>
<polygon fill="none" stroke="#29235c" points="113.42,-1185.53 113.42,-1245.53 647.42,-1245.53 647.42,-1185.53 113.42,-1185.53"/>
<text text-anchor="start" x="124.42" y="-1205.73" font-family="Helvetica,sans-Serif" font-size="32.00" fill="#29235c">url_id &#160;&#160;&#160;</text>
<text text-anchor="start" x="520.87" y="-1206.73" font-family="Helvetica,sans-Serif" font-style="italic" font-size="32.00" fill="#29235c">bigint</text>
<text text-anchor="start" x="597.33" y="-1206.73" font-family="Helvetica,sans-Serif" font-size="32.00" fill="#29235c"> </text>
<text text-anchor="start" x="606.23" y="-1206.73" font-family="Helvetica,sans-Serif" font-weight="bold" font-size="32.00" fill="#29235c">(!)</text>
<polygon fill="#e7e2dd" stroke="transparent" points="113.42,-1125.53 113.42,-1185.53 647.42,-1185.53 647.42,-1125.53 113.42,-1125.53"/>
<polygon fill="none" stroke="#29235c" points="113.42,-1125.53 113.42,-1185.53 647.42,-1185.53 647.42,-1125.53 113.42,-1125.53"/>
<text text-anchor="start" x="124.42" y="-1145.73" font-family="Helvetica,sans-Serif" font-size="32.00" fill="#29235c">type &#160;&#160;&#160;</text>
<text text-anchor="start" x="268.34" y="-1146.73" font-family="Helvetica,sans-Serif" font-style="italic" font-size="32.00" fill="#29235c">notification_type_enum</text>
<text text-anchor="start" x="597.33" y="-1146.73" font-family="Helvetica,sans-Serif" font-size="32.00" fill="#29235c"> </text>
<text text-anchor="start" x="606.23" y="-1146.73" font-family="Helvetica,sans-Serif" font-weight="bold" font-size="32.00" fill="#29235c">(!)</text>
<polygon fill="#e7e2dd" stroke="transparent" points="113.42,-1065.53 113.42,-1125.53 647.42,-1125.53 647.42,-1065.53 113.42,-1065.53"/>
<polygon fill="none" stroke="#29235c" points="113.42,-1065.53 113.42,-1125.53 647.42,-1125.53 647.42,-1065.53 113.42,-1065.53"/>
<text text-anchor="start" x="123.96" y="-1085.73" font-family="Helvetica,sans-Serif" font-size="32.00" fill="#29235c">status &#160;&#160;&#160;</text>
<text text-anchor="start" x="243.94" y="-1086.73" font-family="Helvetica,sans-Serif" font-style="italic" font-size="32.00" fill="#29235c">notification_status_enum</text>
<text text-anchor="start" x="597.82" y="-1086.73" font-family="Helvetica,sans-Serif" font-size="32.00" fill="#29235c"> </text>
<text text-anchor="start" x="606.71" y="-1086.73" font-family="Helvetica,sans-Serif" font-weight="bold" font-size="32.00" fill="#29235c">(!)</text>
<polygon fill="#e7e2dd" stroke="transparent" points="113.42,-1005.53 113.42,-1065.53 647.42,-1065.53 647.42,-1005.53 113.42,-1005.53"/>
<polygon fill="none" stroke="#29235c" points="113.42,-1005.53 113.42,-1065.53 647.42,-1065.53 647.42,-1005.53 113.42,-1005.53"/>
<text text-anchor="start" x="124.42" y="-1025.73" font-family="Helvetica,sans-Serif" font-size="32.00" fill="#29235c">payload &#160;&#160;&#160;</text>
<text text-anchor="start" x="520.87" y="-1026.73" font-family="Helvetica,sans-Serif" font-style="italic" font-size="32.00" fill="#29235c">jsonb</text>
<text text-anchor="start" x="597.33" y="-1026.73" font-family="Helvetica,sans-Serif" font-size="32.00" fill="#29235c"> </text>
<text text-anchor="start" x="606.23" y="-1026.73" font-family="Helvetica,sans-Serif" font-weight="bold" font-size="32.00" fill="#29235c">(!)</text>
<polygon fill="#e7e2dd" stroke="transparent" points="113.42,-945.53 113.42,-1005.53 647.42,-1005.53 647.42,-945.53 113.42,-945.53"/>
<polygon fill="none" stroke="#29235c" points="113.42,-945.53 113.42,-1005.53 647.42,-1005.53 647.42,-945.53 113.42,-945.53"/>
<text text-anchor="start" x="124.42" y="-965.73" font-family="Helvetica,sans-Serif" font-size="32.00" fill="#29235c">created_at &#160;&#160;&#160;</text>
<text text-anchor="start" x="463.97" y="-966.73" font-family="Helvetica,sans-Serif" font-style="italic" font-size="32.00" fill="#29235c">timestamptz</text>
<polygon fill="#e7e2dd" stroke="transparent" points="113.42,-885.53 113.42,-945.53 647.42,-945.53 647.42,-885.53 113.42,-885.53"/>
<polygon fill="none" stroke="#29235c" points="113.42,-885.53 113.42,-945.53 647.42,-945.53 647.42,-885.53 113.42,-885.53"/>
<text text-anchor="start" x="124.42" y="-905.73" font-family="Helvetica,sans-Serif" font-size="32.00" fill="#29235c">updated_at &#160;&#160;&#160;</text>
<text text-anchor="start" x="463.97" y="-906.73" font-family="Helvetica,sans-Serif" font-style="italic" font-size="32.00" fill="#29235c">timestamptz</text>
<polygon fill="none" stroke="#29235c" stroke-width="2" points="112.42,-884.53 112.42,-1426.53 648.42,-1426.53 648.42,-884.53 112.42,-884.53"/>
</g>
<!-- notifications&#45;&gt;notification_type_enum -->
<g id="edge9" class="edge">
<title>notifications:e&#45;&gt;notification_type_enum:w</title>
<path fill="none" stroke="#29235c" stroke-width="3" d="M648.42,-1155.53C941.08,-1155.53 622.57,-553.53 915.23,-553.53"/>
</g>
<!-- notifications&#45;&gt;notification_status_enum -->
<g id="edge10" class="edge">
<title>notifications:e&#45;&gt;notification_status_enum:w</title>
<path fill="none" stroke="#29235c" stroke-width="3" d="M648.42,-1095.53C816.36,-1095.53 712.62,-499.82 796.85,-354.53 828.03,-300.75 840.06,-262.53 902.23,-262.53"/>
</g>
<!-- notifications&#45;&gt;users -->
<!-- notifications&#45;&gt;users -->
<g id="edge6" class="edge">
<title>notifications:e&#45;&gt;users:w</title>
<path fill="none" stroke="#29235c" stroke-width="3" d="M648.42,-1275.53C833.25,-1275.53 734.74,-2049.01 909.05,-2077.71"/>
<polygon fill="#29235c" stroke="#29235c" stroke-width="3" points="908.98,-2081.22 919.23,-2078.53 909.54,-2074.24 908.98,-2081.22"/>
<text text-anchor="middle" x="928.12" y="-2088.13" font-family="Helvetica,sans-Serif" font-size="32.00" fill="#29235c">1</text>
<text text-anchor="middle" x="642.2" y="-1285.13" font-family="Helvetica,sans-Serif" font-size="32.00" fill="#29235c">*</text>
</g>
<!-- notifications&#45;&gt;urls -->
<!-- notifications&#45;&gt;urls -->
<g id="edge8" class="edge">
<title>notifications:e&#45;&gt;urls:w</title>
<path fill="none" stroke="#29235c" stroke-width="3" d="M648.42,-1215.53C778.45,-1215.53 807.2,-1275.26 931.88,-1278.4"/>
<polygon fill="#29235c" stroke="#29235c" stroke-width="3" points="932.19,-1281.91 942.23,-1278.53 932.27,-1274.91 932.19,-1281.91"/>
<text text-anchor="middle" x="951.12" y="-1288.13" font-family="Helvetica,sans-Serif" font-size="32.00" fill="#29235c">1</text>
<text text-anchor="middle" x="642.2" y="-1186.73" font-family="Helvetica,sans-Serif" font-size="32.00" fill="#29235c">*</text>
</g>
</g>
</svg>
